# xmcd
#
# Track frame offsets: 
#        150
#        17975
#        38388
#        55313
#        76900
#        97225
#        121638
#        140775
#        162100
#        181575
#
# Disc length: 2627 seconds
#
# Revision: 4
# Processed by: cddbd v1.4PL0 Copyright (c) Steve Scherf et al.
# Submitted via: ExactAudioCopy v0.95a3
#
DISCID=760a410a
DTITLE=Various Artist - Salute
DYEAR=2001
DGENRE=Jazz
TTITLE0=Reflection
TTITLE1=Starlite
TTITLE2=Everchange
TTITLE3=Once More
TTITLE4=Life's Journey
TTITLE5=Love's Labour
TTITLE6=Starstruck
TTITLE7=Wish
TTITLE8=Because
TTITLE9=Hopeless
EXTD=
EXTT0=
EXTT1=
EXTT2=
EXTT3=
EXTT4=
EXTT5=
EXTT6=
EXTT7=
EXTT8=
EXTT9=
PLAYORDER=
